# xmcd
#
# Track frame offsets: 
#        150
#        37112
#        66770
#        106885
#        142340
#        187542
#        215235
#        241467
#        275547
#
# Disc length: 4152 seconds
#
# Revision: 0
# Processed by: cddbd v1.5.2PL0 Copyright (c) Steve Scherf et al.
# Submitted via: ExactAudioCopy v1.0b1
#
DISCID=8b103609
DTITLE=Various Artist - Consider Dis-Co !
DYEAR=1996
DGENRE=House
TTITLE0=Go Bah (Los Africanos) ("Little" Louie Anthem Part 2 Factory B
TTITLE0=ar Mix)
TTITLE1=Do
TTITLE2=Soul Serchin
TTITLE3=Disco Midget Anthem
TTITLE4=Won't Be No Stoppin (Till Get Thru)
TTITLE5=Do For Me
TTITLE6=Take Me Back
TTITLE7=Show Me The Way
TTITLE8=In Da Clouds (Da New And Improved Mix)
EXTD=
EXTT0=
EXTT1=
EXTT2=
EXTT3=
EXTT4=
EXTT5=
EXTT6=
EXTT7=
EXTT8=
PLAYORDER=
